<?xml version="1.0" encoding="UTF-8"?>
<!-- Created with Inkscape (http://www.inkscape.org/) -->
<svg width="161.61mm" height="46.45mm" version="1.1" viewBox="0 0 161.61 46.45" xml:space="preserve" xmlns="http://www.w3.org/2000/svg"><rect width="161.61" height="46.45" fill="#010024" stroke-width=".59369" style="paint-order:stroke fill markers"/><path d="m36.63 6.381h-29.937v10.577h29.937z" fill="#6551f3" stroke-width="1.8715"/><path d="m6.6938 26.881c8.5166-7.7093 21.42-7.7094 29.937 0v13.182l-6e-3 6e-3 -14.962-15.186-14.962 15.186-0.0058-6e-3z" fill="#6551f3" stroke-width="1.8715"/><g fill="#f7f6fe" stroke-width="1.8715"><path d="m71.769 29.881h-0.64173c-0.60618 0-1.0696-0.10739-1.3905-0.3582-0.32077-0.2506-0.49913-0.75215-0.49913-1.5402v-6.4118c0-2.2208-0.67729-4.0118-1.9965-5.4088-1.3192-1.397-3.4939-2.0776-6.4888-2.0776-2.7095 0-4.8129 0.60895-6.2747 1.791-1.4618 1.2179-2.353 2.8656-2.6027 4.979h4.7418c0.32096-2.1134 1.6757-3.1522 3.993-3.1522 1.3905 0 2.3888 0.3582 2.9236 1.0746 0.53468 0.71641 0.8199 1.7194 0.8199 3.0089v0.5373h-3.8504c-3.0305 0-5.348 0.5373-6.9167 1.6477s-2.353 2.6149-2.353 4.5134c0 1.9342 0.71304 3.367 2.1391 4.2984 1.4261 0.967 3.1018 1.4328 5.0628 1.4328 3.0305 0 5.2765-1.0746 6.667-3.2598 0.32078 1.0389 0.85565 1.791 1.6042 2.1851 0.74878 0.42971 1.8541 0.64473 3.387 0.64473h1.6757zm-12.229 0.71641c-1.0696 0-1.8895-0.25059-2.4599-0.71641-0.60618-0.46562-0.89139-1.0746-0.89139-1.8268 0-1.7553 1.64-2.6506 4.9557-2.6506h3.28c0 1.7908-0.46338 3.1162-1.4261 3.94-0.96251 0.82402-2.1036 1.2537-3.4583 1.2537z"/><path d="m74.832 7.851v4.6208h4.8844v-4.6208zm0 6.6625v19.271h4.8844v-19.271z"/><path d="m83.874 7.851v25.934h4.8844v-5.5522l2.4956-2.5791 5.5261 8.1312h5.7758l-7.9862-11.677 7.2732-7.5938h-6.0253l-7.0593 7.4506v-14.113z"/><path d="m104.87 7.851v4.6208h4.8844v-4.6208zm0 6.6625v19.271h4.8844v-19.271z"/><path d="m132.6 7.851h-4.8844v9.4923c-1.3192-2.185-3.3513-3.2596-6.0253-3.2596-2.5314 0-4.5992 0.89551-6.1323 2.7223-1.5329 1.8268-2.3173 4.2984-2.3173 7.3431 0 3.0446 0.78433 5.4805 2.3173 7.3073 1.5331 1.8268 3.6009 2.7582 6.1323 2.7582 2.674 0 4.706-1.0746 6.0253-3.2598v2.8299h4.8844zm-9.5906 22.459c-1.6042 0-2.7809-0.57305-3.6008-1.7551-0.8201-1.1463-1.2122-2.615-1.2122-4.4059 0-1.791 0.39207-3.2596 1.2122-4.4417 0.81989-1.1821 1.9965-1.7552 3.6008-1.7552 1.5689 0 2.781 0.57312 3.6722 1.6835 0.85564 1.1462 1.2835 2.6507 1.2835 4.5133s-0.42783 3.3671-1.2835 4.4774c-0.89121 1.1106-2.1034 1.6836-3.6722 1.6836z"/><path d="m145.25 34.211c2.9948 0 5.3478-0.89551 7.0948-2.7225 1.7113-1.8268 2.5669-4.2625 2.5669-7.343s-0.85564-5.5163-2.5669-7.3431c-1.747-1.8268-4.1001-2.7223-7.0948-2.7223-3.0305 0-5.3835 0.89551-7.0948 2.7223-1.7115 1.8268-2.5671 4.2626-2.5671 7.3431 0 3.0806 0.85565 5.5163 2.5671 7.343 1.7113 1.827 4.0643 2.7225 7.0948 2.7225zm0-3.9045c-1.5331 0-2.674-0.5373-3.4941-1.6119-0.8199-1.0387-1.2122-2.5791-1.2122-4.5491 0-1.9701 0.39227-3.5104 1.2122-4.585 0.82009-1.0746 1.9609-1.6119 3.4941-1.6119 1.5329 0 2.6738 0.53728 3.4939 1.6119 0.81989 1.0746 1.2122 2.6149 1.2122 4.585 0 1.97-0.39227 3.5104-1.2122 4.5491-0.8201 1.0746-1.961 1.6119-3.4939 1.6119z"/></g></svg>
